<svg xmlns="http://www.w3.org/2000/svg" fill="none" viewBox="0 0 266 156" height="156" width="266">
<path fill="white" d="M245.9 65.8C248 63.4 249.3 60.4 249.7 57.6C250.1 55 251.5 47.8 252.1 45.1C252.6 42.7 253.2 42.4 255 42.2C255.7 42.1 256.1 42.1 256.7 42.2L261.6 42.6L266 19.3L256.9 20.3C255.2 20.5 253.6 21 252.1 21.8L243.3 22.8L226.4 24.8L203.9 27.4L203.5 29.3C200.6 27.8 196.9 27.3 192.2 27.8C186 28.5 181.5 30.9 178.2 34.1C178.1 34 178.1 33.9 178 33.9C176.3 32.1 173.2 30.1 167.6 30.7C167.4 30.7 167.1 30.8 166.8 30.8L168.8 20L156.3 21.5C149.7 22.3 145.3 26.4 144.3 32.8C144.1 34.1 143.1 39.5 141.8 46.3L128.1 47.9C129.1 39.2 127.7 32.9 123.9 28.8C123.2 28.1 122.3 27.3 121.2 26.6C126.6 25.4 130.4 21.8 131.1 17.2C131.5 14.5 133 7.3 133 7.2L134.5 0L83.1 5.89999L70 63.1C69.1 67.8 69.1 71.9 69.9 75.4C69.7 75.3 69.5 75.2 69.3 75.1C69.2 75 69 75 68.9 74.9C68.9 74.9 68.8 74.8 68.7 74.7L68.5 74.5C65.9 71 64.3 68.8 63.9 67.9C63.9 67.8 63.8 67.7 63.8 67.5C63 65.2 60.9 59 50.7 59H50.4C43.9 59.1 40.6 59.9 38.8 60.3C38.5 60.4 38.3 60.4 38.1 60.5C38 60.5 37.8 60.5 37.7 60.5C37.8 58.8 37.7 57 37.4 55.1L37.3 54.5C36.9 50.9 33.4 45.9 28.1 45.9C27.6 45.9 27.1 45.9 26.5 46C18.1 47.5 17.1 51.9 17.1 53.7C17 56.2 18.4 61.4 18.5 62C18.6 62.2 18.6 62.5 18.7 62.8C18.7 62.9 18.8 63.1 18.8 63.2C18.7 63.2 18.5 63.3 18.3 63.3C17.4 63.6 15.7 64 14.3 65.2C13.9 64 13.3 63 12.9 62.4C12.2 61.4 11.2 60.7 10 60.5C9.80003 60.5 8.50003 60.2 7.00003 60.2C2.30003 60.2 1.10003 63 0.800033 64.2C0.500033 65.4 0.600027 66.5 0.700027 67.5C0.700027 67.9 0.800027 68.6 0.700027 68.9C2.65837e-05 71.3 2.65613e-05 76.7 0.200027 79.1C0.800027 84.6 3.60002 88.1 7.40002 88.1C9.00002 88.1 10.5 87.5 11.9 86.3C14 84.6 16 83.2 17.3 82.3C17.9 83.7 18.4 85.5 18.8 87.2C19.4 89.5 19.9 91.4 20.8 92.7C21 93 21.3 93.5 21.7 94C21.6 94.2 21.4 94.4 21.3 94.6C20.5 95.8 19.8 97.9 20.6 100.6C21.8 104.7 24.8 115.8 25.6 119.3C25.3 119.5 25 119.8 24.8 120C24.7 120 24.6 120 24.5 120C23.7 120.1 19.5 121 18.2 124.7C17.6 126.4 17.5 129.1 20.4 132.3C20.7 132.6 21 132.9 21.4 133.1C21.5 133.1 23.3 134.2 26 135.3C26.8 135.6 27.6 136 28.3 136.3C29.9 137 31.3 137.7 32.9 138C33.5 138.1 34.1 138.2 34.7 138.2C36.8 138.2 38 137.3 38.7 136.5C40.4 134.6 40.1 132.2 40 131.5C39.9 130.9 39.9 130.2 39.9 129.4C39.9 128.6 39.9 127.8 39.8 127C42.2 129.8 44.8 132.2 46.2 133.6L46.5 133.9C46.9 134.2 47.4 134.7 47.9 135.2L45.7 147L56.7 145.7C57.7 146.9 58.8 147.4 59.8 147.7C60.3 149.1 60.9 150.9 61.1 151.5C62 154 64.9 155.3 67.2 155.3C68.7 155.3 70.1 154.7 71.1 153.7C72.1 152.7 72.7 151.3 72.6 149.8C72.6 148.1 72.2 145.9 71.8 143.9L74 143.6C74.5 143.5 74.9 143.4 75.4 143.3V143.4L96 141L109.7 139.4C110.1 139.3 110.6 139.2 111 139.2V139.3L139.4 136C139.9 135.9 140.3 135.8 140.8 135.7V135.8L184.1 130.8L184.5 128.9C186.5 130 188.9 130.7 191.7 130.7C192.6 130.7 193.5 130.6 194.5 130.5C196.9 130.2 199.1 129.7 201 128.8L216.3 127L229.9 125.4C235.7 124.7 239.7 121 240.9 115.2C241.3 113.2 242.1 109.2 242.7 106C243 106.3 243.3 106.6 243.7 106.9C245.1 108.1 246.9 108.7 248.7 108.7C249 108.7 249.3 108.7 249.7 108.6C251.9 108.3 253.7 107.3 255.1 105.6C256.5 103.9 257 101.8 256.8 99.6C256.5 97.4 255.5 95.6 253.8 94.2C252.4 93.1 250.7 92.5 248.9 92.5L265.1 63.4L245.9 65.8ZM200.2 70.8C200.1 70.8 200 70.9 199.8 71C199.9 70.9 200 70.8 200.1 70.7L200.2 70.8ZM49.8 111.1C49.7 110.6 49.6 109.6 49.5 108.8C49.6 108.7 49.7 108.6 49.8 108.5C51.9 106.4 54.5 103.8 53.6 100.4C53.5 100.1 53.4 99.7 53.3 99.2C52.4 95.3 51.7 92.4 50.1 90.7C49.8 90.4 49.6 90.1 49.3 89.9C48.5 89.1 48 88.6 47.6 87.9C47.5 87.6 47 86.2 47 80.7C47 79 47.8 77.5 48.5 76C48.8 75.4 49.1 74.8 49.4 74.2C49.6 73.8 50.7 72.9 51.2 72.7L51.5 72.6C51.6 72.6 51.6 72.6 51.7 72.5C52.2 73.1 52.8 73.7 53.5 74.4C54.4 75.4 56 77 56.4 77.5C56.9 78.3 57.5 79 58.1 79.7C58.2 79.8 58.4 80 58.6 80.2C58.6 81.3 58.6 82.5 58.6 82.7C58.6 84 59.2 85.2 60.2 86C60.9 86.5 61.6 86.9 62.5 86.9L57.5 87.5L52.2 115.4C51.1 113.6 50.1 111.7 49.8 111.1Z"></path>
<path stroke-miterlimit="3.8637" stroke-width="1.3762" stroke="#FFF200" fill="black" d="M118.2 133C118.2 133 135.8 131 139.3 130.6C142.8 130.2 145.8 127.8 146.3 125.1C146.7 122.3 147.3 119.7 147.3 119.7L131.8 121.5L133.6 111.9L147.6 110.3L149.5 100.5L135.5 102.1L137.1 93.9L152 92.2L153.9 82L127.3 85.1L118.2 133Z" clip-rule="evenodd" fill-rule="evenodd"></path>
<path stroke-miterlimit="3.8637" stroke-width="1.3762" stroke="#FFF200" fill="black" d="M147.9 129.6L159.6 128.3L163.3 109L166.4 108.6C169.2 108.3 170 109.6 168.9 115L168.3 118.2C167.9 120.2 167.1 124.8 167.7 127.2L180.1 125.8L180.2 125.1C179.5 124.8 179.4 124.3 179.2 123.8C178.8 122.9 179.4 119.7 179.9 117.2L180.7 113.1C181.9 106.7 180.9 103.1 175.4 103.2V103.1C180.9 101.6 184 97.2 185.2 90.8C186.6 83.4 184.2 78.4 175.3 79.4L157 81.5L147.9 129.6ZM167 89.1L169.3 88.8C172.8 88.4 173.9 89.9 173.2 93.8C172.6 97.2 170.5 99.7 167.2 100.1L164.9 100.4L167 89.1Z" clip-rule="evenodd" fill-rule="evenodd"></path>
<path stroke-miterlimit="3.8637" stroke-width="1.3762" stroke="#FFF200" fill="black" d="M200.7 106.2L204.8 105.7C203.1 114.1 201.4 116 198.9 116.3C195.3 116.7 195.6 113.3 198.1 100.2C200.6 87.2 201.6 83.6 205.4 83.2C206.8 83 207.5 83.7 207.7 85C207.9 86.2 207.7 88.1 207.3 90.5L218.6 89.2C220.8 77.5 215.8 73.7 207.5 74.7C193.7 76.3 189.1 85.5 186 101.7C183 117.6 182.3 126.6 194.2 125.2C198.2 124.7 202.5 123.2 204.9 118.9H205L204.4 123.1L212.3 122.2L217.2 96L202.1 97.7L200.7 106.2Z" clip-rule="evenodd" fill-rule="evenodd"></path>
<path stroke-miterlimit="3.8637" stroke-width="1.3762" stroke="#FFF200" fill="black" d="M223.3 120.9C223.3 120.9 226.1 120.6 229.6 120.2C233.1 119.8 235.3 117.8 236 114.2C236.7 110.6 238.6 100.6 238.6 100.6L255.6 70.1L242.8 71.6L235.2 88.9H235.1L233.9 72.6L221.1 74.1L227 102L223.3 120.9Z" clip-rule="evenodd" fill-rule="evenodd"></path>
<path fill="black" d="M67.7 151.3C66.8 151.3 65.5 150.7 65.2 150C64.9 149.1 63.6 145.3 63.3 144.4C63.3 144.3 62.8 144.2 62.5 144.1C61.8 144 60.9 143.9 60.2 143.1C59.6 142.4 59.4 141.6 59.2 140.8C59 140.1 58.8 139.4 58.4 138.8C57.7 137.9 54.8 135.3 52.5 133.3C51.4 132.3 50.4 131.5 49.8 130.9L49.5 130.6C47.5 128.7 43.3 124.8 40.5 120.6C38.5 117.5 36 116 34.9 115.3C35.1 117.4 35.7 122.9 36.2 124.6C36.7 126 36.7 127.7 36.7 129.3C36.7 130.2 36.7 131.1 36.8 131.8C36.9 132.8 36.8 133.5 36.5 133.9C36.2 134.2 35.9 134.3 35.3 134.3C35 134.3 34.6 134.2 34.1 134.2C33.1 134 31.9 133.5 30.5 132.8C29.7 132.4 28.9 132 28 131.7C25.5 130.7 23.9 129.7 23.8 129.7L23.7 129.6C22.4 128.2 21.9 126.9 22.3 125.9C22.9 124.2 25.5 123.8 25.6 123.7C25.6 123.7 25.6 123.7 25.7 123.7H25.8L28.3 124.3L28.1 122.7C28.1 122.5 28.2 122.3 28.4 122.2L29.8 121.8C30 121.3 30.3 120.2 30 119.1C29.6 117.5 25.9 103.6 24.7 99.3C24.4 98.2 24.5 97.2 25 96.4C25.6 95.4 26.6 95 27.3 94.7C26.7 93.7 25.2 91.3 24.4 90.2C23.9 89.4 23.5 87.9 23 86C22.5 84 21.9 81.7 21.1 80C20.3 78.5 19.4 77.7 18.3 77.7C17.8 77.7 17.3 77.9 17 78.1C16.8 78.2 16.6 78.4 16.2 78.6C14.9 79.5 12.5 81 10 83.1C9.30001 83.7 8.60001 84 8.00001 84C5.40001 84 4.70001 79.3 4.60001 78.4C4.30001 76.2 4.5 71.4 4.9 69.6C5.1 68.8 5.00001 67.8 5.00001 66.9C4.90001 66.1 4.90001 65.4 5.00001 64.9C5.20001 63.9 6.90001 63.9 7.50001 63.9C8.60001 63.9 9.80001 64.1 9.80001 64.1C9.90001 64.1 10 64.2 10.1 64.3C10.4 64.8 11.8 67.1 10.9 68.3C10.3 69.2 9.10001 69.4 8.30001 69.4L9.20001 75.8C10.3 75.3 12.1 74.4 12.6 73.9L12.9 73.6C13.8 72.7 15.6 71.1 16.1 69.4C16.6 67.6 18.3 67.1 19.6 66.8C20 66.7 20.5 66.6 20.8 66.4C21.3 66.2 22.1 66.1 23.3 66.1C24 66.1 24.6 66.1 25.2 66.2C24.7 65.8 24.2 65.3 23.8 65C23.1 64.3 22.9 63 22.6 61.8C22.5 61.5 22.5 61.2 22.4 60.9C22.4 60.8 21.1 55.7 21.1 53.7C21.1 51.8 23.4 50.4 27.3 49.7C27.6 49.6 27.9 49.6 28.2 49.6C31.6 49.6 33.5 53.3 33.6 54.8L33.7 55.4C33.9 57.3 34.3 60.4 33.5 61.8C33 62.7 33.6 63.8 33.9 64.2C34.5 64.2 35.9 64.1 37 64.1C37.5 64.1 37.9 64.1 38.2 64.1C38.6 64.1 39.1 64 39.7 63.8C41.5 63.4 44.5 62.7 50.5 62.6H50.8C58.3 62.6 59.6 66.4 60.3 68.5C60.4 68.8 60.5 69.1 60.6 69.4C61.4 71 64.3 74.9 65.6 76.6L65.8 76.8C66.6 77.9 67.2 78.1 68.1 78.4C68.4 78.5 68.8 78.7 69.2 78.9C70.8 79.7 70.2 81.8 69.8 83C69.8 83.2 69.7 83.3 69.7 83.4C69.4 84.6 68.3 84.9 67.5 85.2C67.3 85.3 67.2 85.3 67 85.4C66.9 85.5 66.7 85.5 66.6 85.5C66.3 85.5 66.1 85.4 65.9 85.2C65.4 84.6 65.4 83.5 65.5 82.8C65.5 82.5 65.4 82.2 65.3 82C65.2 81.9 65.1 81.8 65 81.8C64.9 81.8 64.8 81.9 64.7 82C63.8 82.8 63.1 83 63.1 83H63C62.9 83 62.8 83 62.7 82.9C62.6 82.8 62.5 82.7 62.5 82.6C62.5 82.5 62.5 80.3 62.5 79.2C62.5 78.7 61.6 77.7 61 77C60.5 76.4 60 75.9 59.7 75.5C59.4 74.9 57.6 73.1 56.3 71.7C55.3 70.7 54.3 69.7 53.8 69.1C53.4 68.7 53 68.5 52.4 68.5C51.7 68.5 50.8 68.8 50.3 69L50 69.1C49 69.4 46.7 71 46 72.7C45.8 73.2 45.5 73.7 45.3 74.2C44.4 75.9 43.3 78 43.3 80.7C43.3 83.7 43.4 87.9 44.3 89.6C45 90.9 45.8 91.7 46.7 92.6C46.9 92.8 47.2 93.1 47.5 93.4C48.5 94.4 49.1 97.1 49.8 100.1C49.9 100.7 50 101.1 50.1 101.5C50.4 102.8 48.8 104.4 47.3 105.9C46.7 106.5 46.1 107.1 46 107.4C45.7 108.2 46.1 111.4 46.4 112.4C46.7 113.4 49.6 118.4 51 120.5C52.5 122.8 54.2 124.7 55.9 125.9C57.4 127 58.6 129.2 59.4 130.9C59.7 131.5 60 132 60.2 132.3C60.8 133.2 61.9 133.6 63.6 133.6C64.1 133.6 64.6 133.6 65.1 133.5C65.3 133.5 65.5 133.5 65.7 133.5C66.6 133.5 67.2 133.7 67.7 134.2C68.3 134.8 68.2 135.6 68.2 135.7C68.2 135.7 68.3 140.2 68.5 141.9C68.6 142.5 68.7 143.5 68.9 144.5C69.2 146.3 69.6 148.4 69.6 149.7C69.6 150.2 69.5 150.6 69.2 150.9C68.7 151.1 68.2 151.3 67.7 151.3Z"></path>
<path fill="#FFF200" d="M28.2 50C31.3 50 33 53.4 33.2 54.8C33.4 56.4 34.0001 60.1 33.1001 61.6C32.2001 63.1 33.6001 64.7 33.6001 64.7C33.6001 64.7 35.5 64.6 37 64.6C37.5 64.6 37.9 64.6 38.2 64.6H38.3C39.6 64.6 42.2001 63.3 50.6001 63.2C50.7001 63.2 50.8 63.2 50.9 63.2C59.3 63.2 59.5 68.1 60.3 69.7C61.1 71.4 64.3 75.5 65.5 77.2C66.7 78.9 67.6 78.7 69 79.5C70.4 80.2 69.6 82.4 69.2 83.5C68.9 84.7 67.6 84.8 66.8 85.1C66.7 85.1 66.6001 85.2 66.6001 85.2C66.0001 85.2 65.9 84 65.9 83C66 82.2 65.5 81.5 64.9 81.5C64.7 81.5 64.5 81.6 64.2 81.8C63.4 82.6 62.8 82.7 62.8 82.7C62.8 82.7 62.8 80.4 62.8 79.3C62.8 78.2 60.6 76.4 60 75.4C59.4 74.3 55.3 70.3 54 68.9C53.5 68.3 52.9 68.1 52.2 68.1C51.2 68.1 50.2001 68.5 49.6001 68.7C48.5001 69.1 46.1 70.7 45.3 72.6C44.5 74.5 42.5 77.2 42.5 80.8C42.5 84.4 42.7001 88.2 43.6001 89.9C44.5001 91.6 45.6 92.5 46.8 93.8C48 95 48.8 100.1 49.3 101.6C49.7 103.2 45.5 106.3 45.2 107.2C44.9 108.1 45.2001 111.5 45.6001 112.5C45.9001 113.5 48.9 118.7 50.2 120.7C51.5 122.8 53.3 124.8 55.2 126.2C57.1 127.6 58.6 131.2 59.4 132.5C60.1 133.5 61.3 134 63.2 134C63.7 134 64.2 134 64.8 133.9C65 133.9 65.2 133.9 65.4 133.9C67.6 133.9 67.4 135.6 67.4 135.6C67.4 135.6 67.5 140.1 67.7 141.9C67.9 143.7 68.8 147.6 68.8 149.7C68.8 150.6 68.3001 150.9 67.6001 150.9C66.7001 150.9 65.7 150.4 65.5 149.9C65.2 149 63.9001 145.1 63.6001 144.3C63.3001 143.4 61.4 144.1 60.4 142.9C59.4 141.7 59.6001 140.1 58.6001 138.6C57.6001 137.2 51.8 132.4 49.9 130.6C48 128.8 43.6 124.8 40.7 120.4C37.8 116 34.2 114.6 34.2 114.6C34.2 114.6 34.9001 122.6 35.6001 124.8C36.3001 127 35.9 129.7 36.2 131.9C36.4 133.5 36 133.9 35.2 133.9C34.9 133.9 34.5001 133.8 34.1001 133.8C32.6001 133.6 30.7 132.4 28.2 131.3C25.7 130.3 24.1001 129.3 24.1001 129.3C20.1001 125 25.7 124.2 25.7 124.2L28.8 125L28.5 122.8L30.2 122.4C30.2 122.4 30.9 120.8 30.5 119.2C30.1 117.6 26.5 103.9 25.2 99.4C24.2 95.9 28 95.3 28 95.3C28 95.3 25.8 91.7 24.8 90.3C23.8 88.9 23.2 83.5 21.5 80.1C20.5 78.1 19.2 77.5 18.2 77.5C17.5 77.5 17 77.7 16.7 78C15.9 78.6 12.8 80.4 9.70004 83.1C9.10004 83.6 8.50005 83.9 8.00005 83.9C6.10005 83.9 5.30005 80.5 5.00005 78.7C4.70005 76.5 4.90005 71.8 5.30005 70.1C5.70005 68.4 5.10004 66.5 5.40004 65.4C5.50004 64.9 6.50004 64.7 7.40004 64.7C8.50004 64.7 9.70004 64.9 9.70004 64.9C9.70004 64.9 11.3001 67.4 10.6001 68.4C9.90005 69.3 8.30004 69.4 7.90004 69.4H7.80005L8.90004 76.9C8.90004 76.9 12.2 75.4 13 74.6C13.8 73.9 16.0001 72 16.6001 69.9C17.2001 67.8 19.6 67.8 21 67.2C21.5 67 22.4 66.9 23.4 66.9C25.1 66.9 26.9 67.1 26.9 67.1C26.9 67.1 25 65.8 24.3 64.9C23.6 64.1 23.3 62.3 23 61C22.7 59.7 21.7 55.5 21.7 53.9C21.7 52.3 24.0001 50.9 27.6001 50.3C27.7001 50 28 50 28.2 50ZM28.2 49.1C27.9 49.1 27.6 49.1 27.2 49.2C23 50 20.6001 51.6 20.6001 53.7C20.5001 55.7 21.9 61 21.9 61C22 61.3 22.0001 61.6 22.1001 61.9C22.4001 63.2 22.7 64.5 23.4 65.3C23.5 65.4 23.6 65.6 23.8 65.7C23.6 65.7 23.4 65.7 23.2 65.7C21.9 65.7 21 65.8 20.5 66.1C20.2 66.2 19.8 66.4 19.4 66.5C18.1 66.9 16.2001 67.4 15.6001 69.4C15.1001 71 13.4 72.6 12.5 73.4C12.4 73.5 12.3 73.6 12.2 73.7C11.9 74 10.6 74.7 9.50005 75.3L8.70004 70C9.50004 69.9 10.5001 69.5 11.1001 68.7C12.1001 67.3 10.7 64.8 10.3 64.1C10.2 63.9 9.90004 63.7 9.70004 63.7C9.70004 63.7 8.50005 63.5 7.30005 63.5C6.70005 63.5 4.70004 63.5 4.40004 64.9C4.20004 65.6 4.30004 66.3 4.40004 67.1C4.50004 68 4.50005 68.8 4.30005 69.6C3.80005 71.4 3.70004 76.2 3.90004 78.5C4.00004 79.5 4.70005 84.5 7.80005 84.5C8.50005 84.5 9.30005 84.2 10.1001 83.5C12.6001 81.5 15 79.9 16.3 79C16.7 78.8 16.9001 78.6 17.1001 78.5C17.3001 78.4 17.7001 78.2 18.1001 78.2C19.3001 78.2 20.1 79.3 20.5 80.3C21.3 82 21.9 84.2 22.4 86.2C22.9 88.2 23.3 89.8 23.9 90.6C24.6 91.5 25.8 93.4 26.5 94.6C25.8 94.9 25 95.4 24.5 96.2C23.9 97.1 23.8 98.2 24.2 99.5C25.4 103.8 29.2 117.7 29.5 119.3C29.7 120.1 29.5 121 29.4 121.5L28.2 121.8C27.8 121.9 27.5 122.3 27.5 122.8L27.6001 123.7L25.8 123.2C25.7 123.2 25.7001 123.2 25.6001 123.2H25.5C25.2 123.2 22.5 123.7 21.9 125.7C21.5 126.9 22 128.4 23.4 129.9C23.5 130 23.5001 130 23.6001 130.1C23.7001 130.1 25.3 131.1 27.9 132.1C28.8 132.5 29.6 132.8 30.4 133.2C31.8 133.9 33.0001 134.4 34.1001 134.6C34.6001 134.7 35 134.7 35.4 134.7C35.6 134.7 36.4 134.7 36.9 134.1C37.5 133.5 37.4 132.5 37.4 131.7C37.3 130.9 37.3 130.1 37.3 129.2C37.3 127.6 37.3 125.9 36.8 124.4C36.4 123 35.9001 118.8 35.6001 116.1C36.8001 116.9 38.7 118.3 40.3 120.8C43.1 125.1 47.3 129 49.3 130.9L49.6001 131.2C50.2001 131.8 51.2 132.6 52.3 133.6C54.5 135.5 57.5 138.2 58.2 139.1C58.6 139.7 58.8 140.3 59 141C59.2 141.8 59.5001 142.7 60.1001 143.4C60.9001 144.3 61.9 144.5 62.7 144.6C62.9 144.6 63.1 144.7 63.2 144.7C63.6 145.8 64.8001 149.4 65.1001 150.2C65.5001 151.2 66.9 151.8 68 151.8C68.6 151.8 69.2 151.6 69.5 151.2C69.8 150.9 70.1001 150.5 70.1001 149.7C70.1001 148.3 69.7 146.2 69.4 144.4C69.2 143.4 69.1 142.5 69 141.9C68.8 140.3 68.7 136.1 68.7 135.7C68.7 135.4 68.7001 134.6 68.1001 133.9C67.6001 133.3 66.8 133 65.8 133C65.6 133 65.4001 133 65.1001 133C64.6001 133.1 64.1001 133.1 63.6001 133.1C62.1001 133.1 61.1001 132.7 60.6001 132C60.4001 131.7 60.1 131.2 59.8 130.6C58.9 128.9 57.7001 126.6 56.1001 125.5C54.5001 124.3 52.8 122.5 51.3 120.2C49.9 118 47 113 46.8 112.2C46.4 111.1 46.2 108.1 46.4 107.5C46.5 107.3 47.2001 106.7 47.6001 106.2C49.2001 104.6 50.9 102.9 50.5 101.3C50.4 101 50.3 100.5 50.2 100C49.5 97 48.9 94.2 47.8 93.1C47.5 92.8 47.3 92.6 47 92.3C46.1 91.4 45.3 90.6 44.7 89.4C43.7 87.5 43.7 82.4 43.7 80.7C43.7 78.2 44.8001 76.1 45.6001 74.4C45.9001 73.9 46.1 73.3 46.4 72.9C47.1 71.3 49.2001 69.8 50.1001 69.5L50.4 69.4C51 69.2 51.7 68.9 52.4 68.9C52.9 68.9 53.2 69 53.5 69.4C54 70 55 71 56 72.1C57.3 73.4 59.1 75.3 59.4 75.8C59.7 76.3 60.2 76.8 60.7 77.4C61.2 77.9 62.1001 78.9 62.1001 79.2C62.0001 80.3 62.1001 82.6 62.1001 82.6C62.1001 82.9 62.2 83.1 62.4 83.3C62.6 83.4 62.8 83.5 63 83.5C63.1 83.5 63.1 83.5 63.2 83.5C63.4 83.5 64.1001 83.3 65.1001 82.4C65.2001 82.5 65.2 82.6 65.2 82.9C65.1 83.8 65.2 85 65.8 85.7C66.1 86 66.4 86.2 66.8 86.2C67 86.2 67.2 86.2 67.4 86.1C67.5 86 67.7 86 67.9 85.9C68.7 85.6 70 85.2 70.4 83.8C70.4 83.7 70.5 83.5 70.5 83.4C70.9 82.1 71.6 79.7 69.7 78.7C69.3 78.5 68.9 78.3 68.5 78.2C67.7 77.9 67.2 77.7 66.4 76.7L66.2 76.5C64.9 74.8 62 70.9 61.3 69.4C61.2 69.2 61.1 68.9 61 68.6C60.3 66.4 58.9001 62.4 51.1001 62.4H50.8C44.7 62.5 41.6 63.2 39.9 63.6C39.3 63.7 38.8 63.8 38.5 63.8H38.4C38.1 63.8 37.7001 63.8 37.1001 63.8C36.1001 63.8 34.9 63.8 34.2 63.9C34 63.5 33.7 62.8 34 62.3C34.9 60.9 34.6 58.2 34.3 55.6C34.3 55.4 34.2 55.2 34.2 55C33.9 52.8 31.9 49.1 28.2 49.1Z"></path>
<path stroke-miterlimit="3.8637" stroke-width="1.3762" stroke="#FFF200" fill="black" d="M52.9 140.5C52.9 140.5 70.5 138.5 74 138.1C77.5 137.7 80.5 135.3 81 132.6C81.4 129.8 82 127.2 82 127.2L66.5 129L68.3 119.4L82.3 117.8L84.2 108L70.2 109.6L71.8 101.4L86.7 99.7L88.6 89.4L62 92.5L52.9 140.5Z" clip-rule="evenodd" fill-rule="evenodd"></path>
<path stroke-miterlimit="3.8637" stroke-width="1.3762" stroke="#FFF200" fill="black" d="M82.6001 137.1L93.5001 135.8L99.1001 106.1H99.2001L101.4 134.9C101.4 134.9 106.7 134.3 109.6 134C112.5 133.7 114.6 131.8 115.2 128.2C115.8 124.6 123.3 85.3 123.3 85.3L112.4 86.6L106.8 116.3H106.7L104.8 87.5L91.7001 89L82.6001 137.1Z" clip-rule="evenodd" fill-rule="evenodd"></path>
<path stroke-miterlimit="3.8637" stroke-width="1.3762" stroke="#FFF200" fill="black" d="M78.3 52.1L94.8 50.2C95.6 45.8 98 43.7 101 43.3C104.3 42.9 105.6 45.6 104.1 53.9C101.4 68.2 99.4 70.1 95.9 70.5C92.8 70.9 91.3 69.1 92.6 62L93.1 59.5L76.1 61.5L75.6 63.9C73.1 77.4 78.2 84.5 94.3 82.6C111.5 80.6 118.9 70.3 122.5 51C125.5 35.1 120.8 28.1 109.6 29.4C104.4 30 99.7 32.6 95.7 36.3L98.8 23.7C98.8 23.7 115.1 21.8 118.7 21.4C122.4 21 125.5 19.1 126 16.2C126.4 13.3 127.9 6 127.9 6L87.6 10.6L78.3 52.1Z" clip-rule="evenodd" fill-rule="evenodd"></path>
<path stroke-miterlimit="3.8637" stroke-width="1.3762" stroke="#FFF200" fill="black" d="M141.9 75.7L153.2 74.4L157.8 50.3C158.4 47.3 159.4 45.9 161.4 45.7C163.4 45.5 163.9 46.7 163.4 49.7L158.8 73.8C158.8 73.8 161.9 73.4 165 73.1C168.1 72.7 170.5 70.2 171.3 66.4C172.1 62.6 175.3 45 175.3 45C176.7 37.4 173 35.6 168.3 36.1C165.5 36.4 162.1 37.9 159.5 42H159.4L162.4 26.3C162.4 26.3 161.5 26.4 157.2 26.9C152.9 27.4 150.5 29.8 149.9 33.7C149.2 37.4 141.9 75.7 141.9 75.7Z" clip-rule="evenodd" fill-rule="evenodd"></path>
<path stroke-miterlimit="3.8637" stroke-width="1.3762" stroke="#FFF200" fill="black" d="M203.7 50.7C205.7 40.2 206.2 31.6 192.9 33.1C180.1 34.6 176.6 44.4 174.8 54C172.8 64.5 172.4 73.1 185.6 71.6C198.4 70.1 201.9 60.3 203.7 50.7ZM186.1 52.7C187.8 43.4 188.8 41.2 194 40.6C194.7 40.5 194.2 42.7 192.4 51.9C190.7 61.1 189.8 63.3 184.7 63.9C184.2 64 184.4 61.9 186.1 52.7Z" clip-rule="evenodd" fill-rule="evenodd"></path>
<path stroke-miterlimit="3.8637" stroke-width="1.3762" stroke="#FFF200" fill="black" d="M203.2 59.8C201.7 67.6 205.2 69.3 210.2 68.7C214.1 68.3 217.3 66.1 219.5 62.3H219.6L218.8 66.8L229.8 65.5L236.7 28.9L225.4 30.2L220.8 54.3C220.2 57.3 219.2 58.7 217.2 58.9C215.2 59.1 214.7 57.9 215.2 54.9L219.8 30.8L208.5 32.1L203.2 59.8Z" clip-rule="evenodd" fill-rule="evenodd"></path>
<path stroke-miterlimit="3.8637" stroke-width="1.3762" stroke="#FFF200" fill="black" d="M231.7 65.3C231.7 65.3 233.5 65.1 237.5 64.6C241.5 64.1 244 60 244.4 56.7C244.9 53.4 246.8 44 246.8 44C247.7 39.2 250.4 37.2 254.4 36.8C255.3 36.7 256.2 36.7 257.2 36.7L259.3 25.3L257.5 25.5C254.2 25.9 250.7 28.6 248.6 33.1H248.5L249.6 27.3L238.6 28.6L231.7 65.3Z" clip-rule="evenodd" fill-rule="evenodd"></path>
<path fill="black" d="M245.5 97.9C244.7 98.9 244.4 100 244.6 101.2C244.7 102.4 245.3 103.5 246.3 104.2C247.3 105 248.4 105.3 249.6 105.1C250.8 105 251.8 104.4 252.6 103.4C253.4 102.4 253.7 101.3 253.5 100.1C253.4 98.9 252.8 97.9 251.8 97.1C250.8 96.3 249.7 96 248.5 96.2C247.2 96.3 246.2 96.9 245.5 97.9ZM253 103.9C252.1 105 250.9 105.7 249.5 105.8C248.1 106 246.8 105.6 245.7 104.7C244.6 103.8 243.9 102.6 243.8 101.2C243.6 99.8 244 98.5 244.9 97.4C245.8 96.3 246.9 95.6 248.4 95.5C249.8 95.3 251.1 95.7 252.2 96.6C253.3 97.5 254 98.6 254.1 100.1C254.3 101.5 253.9 102.8 253 103.9ZM249.7 98.6C249.4 98.5 249 98.5 248.5 98.5L247.7 98.6L247.9 100.7L248.8 100.6C249.2 100.5 249.5 100.5 249.7 100.4C250.1 100.2 250.2 99.9 250.2 99.4C250.1 98.9 250 98.7 249.7 98.6ZM248.5 97.8C249.2 97.7 249.7 97.7 250.1 97.8C250.7 98 251.1 98.4 251.1 99.1C251.2 99.6 251 100 250.7 100.3C250.5 100.5 250.2 100.6 249.9 100.7C250.4 100.7 250.7 100.9 250.9 101.1C251.2 101.4 251.3 101.7 251.3 101.9V102.3C251.3 102.4 251.3 102.6 251.4 102.7C251.4 102.8 251.5 102.9 251.5 103V103.1L250.6 103.2C250.6 103.2 250.6 103.2 250.6 103.1C250.6 103.1 250.6 103.1 250.6 103V102.8L250.5 102.4C250.4 101.7 250.2 101.3 249.8 101.2C249.6 101.1 249.2 101.1 248.7 101.1L247.9 101.2L248.2 103.4L247.2 103.5L246.5 97.8H248.5Z" clip-rule="evenodd" fill-rule="evenodd"></path>
<path stroke-miterlimit="3.8637" stroke-width="1.3762" stroke="#FFF200" fill="black" d="M122.6 63.8L142.2 61.6L144.2 51.3L124.5 53.6L122.6 63.8Z" clip-rule="evenodd" fill-rule="evenodd"></path>
</svg>
