<svg xmlns="http://www.w3.org/2000/svg" fill="none" viewBox="0 0 127 146" height="146" width="127">
<path fill="white" d="M63.5 6.8C94.8 6.8 120.2 32.2 120.2 63.5C120.2 94.8 94.8 120.2 63.5 120.2C32.2 120.2 6.8 94.8 6.8 63.5C6.8 32.2 32.2 6.8 63.5 6.8ZM63.5 0C28.5 0 0 28.5 0 63.5C0 98.5 28.5 127 63.5 127C98.5 127 127 98.5 127 63.5C127 28.5 98.5 0 63.5 0Z"></path>
<path fill="white" d="M27 124.6C28.3 122.5 28.6 121.4 27.5 120.7C26.1 119.9 25.2 121.1 22.9 124.9C20.2 129.2 19.7 130.4 21.1 131.3C22.4 132.1 23.4 130.7 24.8 128.5L28.1 130.5L27.8 131C25.9 134.1 23.6 135.9 19.3 133.3C14.9 130.6 16.6 127.1 19.3 122.8C21.6 119.1 24.1 115.5 28.9 118.5C31.9 120.4 32.7 122.7 30.6 126.1L30.2 126.7L27 124.6Z"></path>
<path fill="white" d="M35.9 122.6L40.5 124.5L38 141.9L34.2 140.3L34.9 137.1L31.1 135.6L29.3 138.4L25.5 136.8L35.9 122.6ZM37 126.4L32.8 132.9L35.5 134L37 126.4Z"></path>
<path fill="white" d="M43.2999 125.6L52.9 127.9L52.0999 131L46.4 129.6L45.5999 132.9L50.9 134.2L50.0999 137.3L44.7999 136L43.0999 142.9L39.2 142L43.2999 125.6Z"></path>
<path fill="white" d="M54.1 128L63.9 128.7L63.7 131.9L57.9 131.5L57.7 134.9L63.2 135.3L63 138.5L57.5 138.1L57 145.2L53 144.9L54.1 128Z"></path>
<path fill="white" d="M65.1 128.6L74.9 127.6L75.2 130.8L69.4 131.4L69.7 134.8L75.1 134.3L75.4 137.5L70 138L70.4 141.9L76.5 141.3L76.8 144.5L66.8 145.5L65.1 128.6Z"></path>
<path fill="white" d="M76.5 127.1L80.4 126.2L84.3 142.8L80.4 143.7L76.5 127.1Z"></path>
<path fill="white" d="M82 126L86.3 124.3L93.4 133.4L89.4 123.1L92.9 121.7L99.1 137.5L94.9 139.2L87.3 129.6L91.6 140.5L88.3 141.8L82 126Z"></path>
<path fill="white" d="M94.2 121L102.6 115.8L104.3 118.6L99.3 121.7L101.1 124.6L105.8 121.7L107.5 124.5L102.8 127.4L104.8 130.7L110 127.5L111.7 130.3L103.1 135.6L94.2 121Z"></path>
<path stroke-miterlimit="10" stroke-width="5" stroke="white" d="M87.4 38.1L71.1 51.6L78.9 70.9L99.6 70.7L104.8 50.1L87.4 38.1Z"></path>
<path stroke-miterlimit="10" stroke-width="5" stroke="white" d="M65.5 88.6L44.3 87.3L35.6 66.4L48.9 49.3L71.1 51.6L78.9 70.9L65.5 88.6Z"></path>
<path stroke-miterlimit="10" stroke-width="5" stroke="white" d="M65.5 88.6L72.2 101.9"></path>
<path stroke-miterlimit="10" stroke-width="5" stroke="white" d="M87.4 38.1L87.1 23"></path>
<path stroke-miterlimit="10" stroke-width="5" stroke="white" d="M48.9 49.3L43.6 36.7"></path>
<path stroke-miterlimit="10" stroke-width="5" stroke="white" d="M35.6 66.4L21.2 65.4"></path>
<path stroke-miterlimit="10" stroke-width="5" stroke="white" d="M44.3 87.3L36.6 99.8"></path>
<path fill="white" d="M36.2 70.7C38.5749 70.7 40.5 68.7748 40.5 66.4C40.5 64.0252 38.5749 62.1 36.2 62.1C33.8252 62.1 31.9 64.0252 31.9 66.4C31.9 68.7748 33.8252 70.7 36.2 70.7Z"></path>
<path fill="white" d="M100.5 74.7C102.875 74.7 104.8 72.7748 104.8 70.4C104.8 68.0252 102.875 66.1 100.5 66.1C98.1252 66.1 96.2 68.0252 96.2 70.4C96.2 72.7748 98.1252 74.7 100.5 74.7Z"></path>
<path fill="white" d="M43.5 41.2C46.3167 41.2 48.6 38.9167 48.6 36.1C48.6 33.2833 46.3167 31 43.5 31C40.6834 31 38.4 33.2833 38.4 36.1C38.4 38.9167 40.6834 41.2 43.5 41.2Z"></path>
<path fill="white" d="M65.6 92.8C67.9748 92.8 69.9 90.8748 69.9 88.5C69.9 86.1252 67.9748 84.2 65.6 84.2C63.2252 84.2 61.3 86.1252 61.3 88.5C61.3 90.8748 63.2252 92.8 65.6 92.8Z"></path>
<path fill="white" d="M87.5 42.6C89.8748 42.6 91.8 40.6748 91.8 38.3C91.8 35.9252 89.8748 34 87.5 34C85.1252 34 83.2 35.9252 83.2 38.3C83.2 40.6748 85.1252 42.6 87.5 42.6Z"></path>
<path fill="white" d="M73.1 109.6C76.248 109.6 78.8 107.048 78.8 103.9C78.8 100.752 76.248 98.2 73.1 98.2C69.952 98.2 67.4 100.752 67.4 103.9C67.4 107.048 69.952 109.6 73.1 109.6Z"></path>
<path fill="white" d="M36.2 107.2C39.348 107.2 41.9 104.648 41.9 101.5C41.9 98.352 39.348 95.8 36.2 95.8C33.052 95.8 30.5 98.352 30.5 101.5C30.5 104.648 33.052 107.2 36.2 107.2Z"></path>
<path fill="white" d="M20.7 70.4C23.848 70.4 26.4 67.848 26.4 64.7C26.4 61.552 23.848 59 20.7 59C17.552 59 15 61.552 15 64.7C15 67.848 17.552 70.4 20.7 70.4Z"></path>
<path fill="white" d="M87 29.1C90.0928 29.1 92.6 26.5928 92.6 23.5C92.6 20.4072 90.0928 17.9 87 17.9C83.9072 17.9 81.4 20.4072 81.4 23.5C81.4 26.5928 83.9072 29.1 87 29.1Z"></path>
</svg>
