<svg width="127" height="146" viewBox="0 0 127 146" fill="none" xmlns="http://www.w3.org/2000/svg">
<path d="M63.5 6.80306C94.8178 6.80306 120.202 32.2042 120.202 63.5433C120.202 94.8824 94.8178 120.284 63.5 120.284C32.1822 120.284 6.79843 94.8734 6.79843 63.5433C6.79843 32.2132 32.1822 6.80306 63.5 6.80306ZM63.5 0C28.4814 0 0 28.5008 0 63.5433C0 98.5858 28.4814 127.087 63.5 127.087C98.5186 127.087 127 98.5858 127 63.5433C127 28.5008 98.5096 0 63.5 0Z" fill="white"/>
<path d="M9.14861 118.274L8.74341 118.698C7.86997 119.617 7.46476 120.554 8.45526 121.491C9.46377 122.446 10.4543 121.969 11.1206 121.266C13.6059 118.644 6.98752 115.156 11.3007 110.606C13.1376 108.669 15.7219 108.011 18.6664 110.804C21.5299 113.517 21.1787 115.931 19.4048 117.806L19.1256 118.094L16.3703 115.481C16.9195 114.904 17.2527 114.409 17.3427 113.976C17.4418 113.526 17.3067 113.129 16.8745 112.724C16.1631 112.048 15.3347 112.066 14.4883 112.949C12.0841 115.49 18.5223 119.166 14.4613 123.455C11.85 126.213 9.26567 125.87 6.64535 123.383C4.5653 121.419 3.24164 118.959 5.64585 116.418L6.38422 115.634L9.13961 118.247L9.14861 118.274Z" fill="white"/>
<path d="M25.807 130.565C23.9881 133.313 21.782 134.944 17.9641 132.421C14.1371 129.889 14.7855 127.213 16.5954 124.473L22.7905 115.102L26.0861 117.283L19.2517 127.618C18.5223 128.718 18.5313 129.646 19.4048 130.231C20.2872 130.817 21.1517 130.457 21.872 129.357L28.7065 119.022L32.0021 121.203L25.807 130.574V130.565Z" fill="white"/>
<path d="M37.3868 129.15C37.8191 128.159 38.3773 126.537 37.0447 125.96C35.5589 125.32 34.7395 126.762 32.9746 130.853C31.1737 135.061 30.8045 136.512 32.2453 137.133C33.4699 137.665 34.3883 136.728 35.2978 134.61L35.5049 134.115L33.803 133.385L34.8386 130.97L39.9081 133.151L36.3603 141.414L33.8751 140.35L34.4153 138.846L34.3703 138.828C33.2177 139.972 31.687 139.774 30.2913 139.17C26.4283 137.512 27.0136 134.367 29.0757 129.547C31.2458 124.501 32.9926 121.365 38.1252 123.572C42.8076 125.582 41.61 128.907 40.8626 130.655L37.3688 129.15H37.3868Z" fill="white"/>
<path d="M46.1933 126.735L51.0017 127.862L51.2358 145.171L47.2558 144.234L47.3909 140.981L43.4829 140.062L42.1773 143.044L38.1973 142.107L46.2023 126.735H46.1933ZM47.8321 130.258H47.7871L44.7255 137.206L47.5169 137.863L47.8321 130.258Z" fill="white"/>
<path d="M54.6305 128.627L61.2489 128.961C64.6076 129.132 65.6521 131.259 65.535 133.556C65.409 135.998 64.3644 137.152 62.5095 137.503V137.548C65.0038 138.026 65.0668 139.611 64.9948 141.864C64.8957 145.18 64.9948 145.513 65.553 145.775V145.991L61.2939 145.775C61.0148 145.198 60.9427 144.252 61.0418 142.351C61.1948 139.44 60.8257 138.809 59.574 138.746L58.0703 138.674L57.7191 145.604L53.7751 145.396L54.6305 128.627ZM58.2143 135.899L59.439 135.962C61.0328 136.043 61.519 134.863 61.564 133.881C61.6271 132.61 61.2038 131.745 59.6281 131.664L58.4304 131.601L58.2143 135.899Z" fill="white"/>
<path d="M74.3505 128.249L83.7962 126.005L84.5346 129.123L78.9248 130.457L79.7082 133.727L84.9668 132.475L85.7052 135.593L80.4375 136.845L82.0584 143.693L78.2134 144.603L74.3325 128.258L74.3505 128.249Z" fill="white"/>
<path d="M85.1289 125.6L91.18 122.906C94.2505 121.536 96.1415 122.96 97.0779 125.059C98.0684 127.294 97.6632 128.79 96.1685 129.943L96.1865 129.988C98.6177 129.285 99.3921 130.664 100.356 132.709C101.769 135.71 102.003 135.962 102.616 135.944L102.697 136.133L98.8158 137.863C98.3115 137.476 97.8163 136.665 97.0419 134.926C95.8533 132.268 95.241 131.871 94.1064 132.376L92.7377 132.989L95.5562 139.323L91.9543 140.927L85.1289 125.609V125.6ZM91.6122 130.457L92.7287 129.961C94.1875 129.312 94.0884 128.042 93.6832 127.141C93.17 125.978 92.3956 125.402 90.9548 126.041L89.8653 126.528L91.6122 130.457Z" fill="white"/>
<path d="M95.9614 120.572L104.029 115.165L105.803 117.824L101.013 121.031L102.886 123.825L107.379 120.815L109.153 123.473L104.66 126.483L106.794 129.673L111.791 126.321L113.565 128.979L105.281 134.529L95.9434 120.572H95.9614Z" fill="white"/>
<path d="M105.191 114.201L112.224 107.506L114.43 109.822L110.261 113.787L112.575 116.22L116.492 112.489L118.698 114.805L114.781 118.535L117.419 121.311L121.777 117.166L123.974 119.482L116.753 126.348L105.2 114.183L105.191 114.201Z" fill="white"/>
<path d="M104.417 22.3014L22.6644 104.1" stroke="white" stroke-width="9.44" stroke-miterlimit="10"/>
<path d="M75.6831 74.8337C75.2509 74.8337 74.8277 74.6625 74.5126 74.3471L48.2463 48.063C47.7691 47.5854 47.625 46.8735 47.8861 46.2518L61.7261 12.8943C61.9422 12.3807 62.3924 12.0112 62.9327 11.9031C63.473 11.795 64.0403 11.9662 64.4275 12.3536L90.6937 38.6378C91.1709 39.1153 91.315 39.8272 91.0539 40.4489L77.2139 73.8065C76.9978 74.3201 76.5476 74.6895 76.0073 74.7976C75.8993 74.8157 75.7912 74.8337 75.6831 74.8337ZM51.3799 46.5041L75.1069 70.2382L87.5691 40.2056L63.8512 16.4715L51.3889 46.5041H51.3799Z" fill="white"/>
<path d="M42.3754 88.656C41.9431 88.656 41.5199 88.4848 41.2048 88.1695L14.9475 61.8853C14.5513 61.4979 14.3892 60.9302 14.4973 60.3895C14.6054 59.8489 14.9745 59.3894 15.4878 59.1821L48.8226 45.3327C49.4439 45.0714 50.1643 45.2156 50.6325 45.6931L76.8897 71.9773C77.2859 72.3647 77.448 72.9324 77.34 73.4731C77.2319 74.0137 76.8627 74.4732 76.3495 74.6805L43.0147 88.5299C42.8076 88.62 42.5915 88.656 42.3754 88.656ZM19.0446 61.2996L42.7626 85.0338L72.7747 72.563L49.0567 48.8289L19.0446 61.2996Z" fill="white"/>
<path d="M16.1091 62.3809C15.6679 62.3809 15.2357 62.2097 14.9205 61.8763C14.4433 61.3898 14.3172 60.6599 14.5964 60.0382L29.2017 27.5006C29.3728 27.1312 29.6609 26.8338 30.0391 26.6626L62.5815 12.0203C63.2029 11.7409 63.9322 11.8671 64.4185 12.3446C64.9047 12.8222 65.0578 13.5431 64.7967 14.1738L50.9837 47.5043C50.8126 47.9098 50.4884 48.2342 50.0832 48.4054L16.7484 62.2548C16.5413 62.3449 16.3252 62.3809 16.1091 62.3809ZM31.9661 29.4379L19.3327 57.5782L48.1653 45.6031L60.1143 16.7779L31.9661 29.4379Z" fill="white"/>
<path d="M74.4855 106.93C74.1614 106.93 73.8372 106.831 73.5671 106.65C73.1078 106.344 72.8287 105.821 72.8287 105.272V77.4107C72.8287 76.7349 73.2339 76.1312 73.8552 75.8789L98.8518 65.5437C99.3651 65.3364 99.9504 65.3905 100.41 65.6969C100.869 66.0032 101.148 66.5258 101.148 67.0755V94.9275C101.148 95.6033 100.743 96.207 100.121 96.4593L75.1249 106.804C74.9178 106.885 74.7017 106.93 74.4945 106.93H74.4855ZM76.1424 78.519V102.785L97.8253 93.8192V69.5534L76.1424 78.519Z" fill="white"/>
<path d="M74.5126 106.93C74.2964 106.93 74.0803 106.885 73.8822 106.804L48.8856 96.4593C48.2643 96.198 47.8591 95.5943 47.8591 94.9275V67.0755C47.8591 66.5168 48.1383 66.0032 48.5975 65.6969C49.0567 65.3905 49.642 65.3274 50.1553 65.5437L75.1519 75.8789C75.7732 76.1402 76.1784 76.7439 76.1784 77.4107V105.272C76.1784 105.83 75.8993 106.344 75.44 106.65C75.1609 106.84 74.8457 106.93 74.5216 106.93H74.5126ZM51.1728 93.8192L72.8557 102.785V78.519L51.1728 69.5534V93.8192Z" fill="white"/>
<path d="M74.5126 79.0687C74.2964 79.0687 74.0803 79.0236 73.8822 78.9425L48.8856 68.6073C48.2553 68.346 47.8501 67.7333 47.8591 67.0485C47.8681 66.3636 48.2913 65.7599 48.9307 65.5166L73.9093 56.0194C74.2874 55.8752 74.7107 55.8752 75.0888 56.0194L100.085 65.5166C100.725 65.7599 101.148 66.3636 101.157 67.0485C101.166 67.7333 100.761 68.346 100.13 68.6073L75.1519 78.9425C74.9538 79.0236 74.7377 79.0687 74.5216 79.0687H74.5126ZM54.0182 67.1295L74.5126 75.6086L94.9889 67.1295L74.4945 59.3443L54.0182 67.1295Z" fill="white"/>
</svg>
