<svg width="127" height="147" viewBox="0 0 127 147" fill="none" xmlns="http://www.w3.org/2000/svg">
<path d="M63.5 6.80684C94.8178 6.80684 120.202 32.2221 120.202 63.5786C120.202 94.9352 94.8178 120.35 63.5 120.35C32.1822 120.35 6.79843 94.9261 6.79843 63.5786C6.79843 32.2311 32.1822 6.80684 63.5 6.80684ZM63.5 0C28.4814 0 0 28.5166 0 63.5786C0 98.6406 28.4814 127.157 63.5 127.157C98.5186 127.157 127 98.6406 127 63.5786C127 28.5166 98.5096 0 63.5 0Z" fill="white"/>
<path d="M107.784 56.8258C107.784 67.0136 99.5362 75.2809 89.352 75.2809C79.1679 75.2809 70.9197 67.0226 70.9197 56.8258C70.9197 46.6291 79.1679 38.3707 89.352 38.3707C99.5362 38.3707 107.784 46.6291 107.784 56.8258Z" stroke="white" stroke-width="3.78" stroke-miterlimit="10"/>
<path d="M52.4334 76.6874C52.4334 76.6874 54.9997 57.6012 71.0818 59.188" stroke="white" stroke-width="3.78" stroke-miterlimit="10"/>
<path d="M47.589 56.8258C47.589 56.8258 46.5084 63.4794 48.9307 65.3637L54.5495 69.6371" stroke="white" stroke-width="3.78" stroke-miterlimit="10"/>
<path d="M43.555 56.8258C43.555 56.8258 61.7621 61.3247 61.7621 50.5419C61.7621 43.8072 51.632 40.0296 48.6695 40.0296C45.707 40.0296 31.1737 43.8072 31.1737 51.3533C31.1737 51.3533 30.3633 74.5327 32.2543 78.3102C34.1362 82.0878 45.5089 100.146 47.3639 102.571C49.2188 104.997 52.6495 105.438 57.2238 105.168C61.7981 104.897 87.9113 101.327 91.3871 75.1818" stroke="white" stroke-width="3.78" stroke-miterlimit="10"/>
<path d="M24.2042 58.3585L19.864 54.1121L24.8075 49.7666L20.5664 41.986L29.1477 41.373V33.6916H36.0091L37.8281 28.1379L44.1943 31.8794L49.4439 27.2274L53.1718 33.3941L60.2404 31.3656V38.3798" stroke="white" stroke-width="3.78" stroke-miterlimit="10"/>
<path d="M78.4115 81.3034C78.4115 81.3034 78.0063 91.2117 68.4165 92.2214" stroke="white" stroke-width="3.78" stroke-miterlimit="10"/>
<path d="M29.6069 123.362L26.5004 121.703L28.0041 118.881L37.711 124.056L36.2072 126.878L33.1007 125.219L26.7165 137.219L23.2407 135.362L29.6249 123.362H29.6069Z" fill="white"/>
<path d="M40.0252 124.795L44.6895 126.391L43.2218 143.629L39.3588 142.313L39.8181 139.094L36.0182 137.796L34.4334 140.636L30.5614 139.31L40.0252 124.804V124.795ZM41.3038 128.464L41.2588 128.446L37.5309 135.073L40.2413 136.002L41.2948 128.464H41.3038Z" fill="white"/>
<path d="M56.5755 140.212C56.0443 143.458 54.7116 145.865 50.1913 145.125C45.671 144.386 45.1578 141.691 45.689 138.436L47.4899 127.347L51.3889 127.978L49.4079 140.212C49.2008 141.51 49.588 142.358 50.6235 142.529C51.659 142.7 52.2984 142.015 52.5055 140.717L54.4865 128.483L58.3854 129.114L56.5845 140.203L56.5755 140.212Z" fill="white"/>
<path d="M59.9702 129.222L66.5886 129.014C69.9473 128.915 71.1629 130.944 71.2259 133.252C71.2979 135.695 70.3525 136.93 68.5335 137.426V137.48C71.0548 137.76 71.2439 139.328 71.361 141.582C71.5321 144.891 71.6581 145.216 72.2254 145.441V145.657L67.9843 145.784C67.6601 145.225 67.516 144.287 67.453 142.385C67.363 139.473 66.9487 138.878 65.7061 138.914L64.2024 138.959L64.4095 145.892L60.4655 146.018L59.9522 129.231L59.9702 129.222ZM64.1303 136.173L65.3459 136.137C66.9397 136.083 67.3269 134.875 67.2999 133.892C67.2639 132.621 66.7687 131.791 65.1929 131.836L63.9953 131.872L64.1303 136.173Z" fill="white"/>
<path d="M71.6041 128.6L75.5031 127.996L78.0603 144.612L74.1614 145.216L71.6041 128.6Z" fill="white"/>
<path d="M76.8807 127.951L81.2299 126.643L87.4701 136.173H87.5151L84.3815 125.697L87.8933 124.642L92.7107 140.744L88.4246 142.033L81.7972 131.936H81.7522L85.0749 143.043L81.6982 144.053L76.8807 127.96V127.951Z" fill="white"/>
<path d="M89.5321 123.876L98.1405 119.404L99.6082 122.244L94.5026 124.894L96.0514 127.878L100.842 125.39L102.31 128.23L97.5101 130.718L99.275 134.117L104.615 131.35L106.082 134.189L97.24 138.778L89.5231 123.876H89.5321Z" fill="white"/>
</svg>
