<svg width="127" height="146" viewBox="0 0 127 146" fill="none" xmlns="http://www.w3.org/2000/svg">
<path d="M63.5 6.79887C94.8178 6.79887 120.202 32.1843 120.202 63.5041C120.202 94.8239 94.8178 120.209 63.5 120.209C32.1822 120.209 6.79843 94.8149 6.79843 63.5041C6.79843 32.1933 32.1822 6.79887 63.5 6.79887ZM63.5 0C28.4814 0 0 28.4832 0 63.5041C0 98.525 28.4814 127.008 63.5 127.008C98.5186 127.008 127 98.525 127 63.5041C127 28.4832 98.5096 0 63.5 0Z" fill="white"/>
<path d="M23.5739 115.707L27.1667 117.94L21.9981 130.007L22.0431 130.034L30.6154 120.083L34.2082 122.317L22.1061 134.554L17.838 131.889L23.5739 115.689V115.707Z" fill="white"/>
<path d="M35.1357 122.515L38.7375 124.118L31.9121 139.426L28.3103 137.823L35.1357 122.515Z" fill="white"/>
<path d="M41.9251 128.683L38.5484 127.675L39.4669 124.613L50.0112 127.774L49.0927 130.835L45.716 129.827L41.8171 142.839L38.0352 141.705L41.9341 128.683H41.9251Z" fill="white"/>
<path d="M52.0732 127.963L56.9627 128.638L58.8086 145.847L54.7566 145.289L54.5855 142.038L50.6055 141.488L49.588 144.577L45.5359 144.019L52.0822 127.972L52.0732 127.963ZM54.0272 131.322H53.9822L51.578 138.535L54.4144 138.931L54.0182 131.322H54.0272Z" fill="white"/>
<path d="M59.2859 129.241L65.0668 128.935L67.7231 139.831H67.7682L69.1729 128.71L74.8727 128.404L75.7732 145.172L72.1083 145.37L71.406 132.312H71.361L69.497 145.505L66.4445 145.667L63.0498 132.753H63.0048L63.6981 145.811L60.1773 146L59.2859 129.232V129.241Z" fill="white"/>
<path d="M76.1514 127.756L79.9963 126.882L83.7062 143.217L79.8613 144.091L76.1514 127.756Z" fill="white"/>
<path d="M81.7612 126.594L85.9933 124.955L92.9539 133.96L92.9989 133.942L89.0639 123.766L92.4856 122.443L98.5457 138.094L94.3856 139.705L86.9838 130.169L86.9388 130.187L91.1169 140.975L87.8303 142.245L81.7702 126.594H81.7612Z" fill="white"/>
<path d="M102.12 130.241L102.427 130.745C103.084 131.826 103.894 132.465 105.056 131.754C106.236 131.033 106.037 129.944 105.533 129.124C103.651 126.045 98.5547 131.52 95.286 126.18C93.8903 123.901 93.9354 121.227 97.3931 119.111C100.761 117.058 102.994 118.021 104.345 120.218L104.552 120.561L101.31 122.542C100.896 121.857 100.509 121.407 100.112 121.209C99.7073 120.993 99.284 121.029 98.7888 121.335C97.9514 121.848 97.7533 122.659 98.3926 123.694C100.221 126.675 105.443 121.416 108.532 126.459C110.513 129.701 109.513 132.105 106.425 133.987C103.984 135.482 101.274 136.121 99.4461 133.141L98.8788 132.222L102.12 130.241Z" fill="white"/>
<path d="M106.785 43.1886C103.345 39.3704 98.6087 37.1281 93.4401 36.858C88.3165 36.5968 83.301 38.3618 79.5101 41.7838L63.6441 56.1019C63.554 56.1829 63.482 56.273 63.41 56.363C63.3379 56.273 63.2659 56.1829 63.1758 56.1019L47.3098 41.7838C43.5279 38.3708 38.5034 36.5968 33.3888 36.858C28.2202 37.1281 23.4838 39.3704 20.0441 43.1886C12.9125 51.095 13.5428 63.333 21.4488 70.4651L37.3148 84.7832C37.783 85.2064 38.3954 85.4406 39.0257 85.4406C39.0707 85.4406 39.1157 85.4406 39.1607 85.4406C39.8361 85.4046 40.4664 85.1074 40.9256 84.6031L63.3739 59.7129C63.3739 59.7129 63.401 59.6679 63.419 59.6499C63.437 59.6679 63.446 59.6949 63.464 59.7129L85.9123 84.6031C86.4166 85.1614 87.1099 85.4496 87.8033 85.4496C88.4156 85.4496 89.0189 85.2335 89.5141 84.7922L105.38 70.4741C113.286 63.342 113.916 51.1041 106.785 43.1976V43.1886ZM45.3288 47.9883C44.7886 48.5826 43.8701 48.6367 43.2668 48.0963C40.7455 45.8271 37.4769 44.6744 34.0552 44.8455C30.6334 45.0256 27.4999 46.5024 25.2307 49.0239C24.9426 49.339 24.5464 49.5011 24.1502 49.5011C23.799 49.5011 23.4568 49.3751 23.1777 49.1229C22.5834 48.5826 22.5294 47.6641 23.0696 47.0608C25.861 43.963 29.715 42.135 33.9111 41.9188C38.1072 41.7027 42.1232 43.1255 45.2208 45.9171C45.8151 46.4574 45.8691 47.3759 45.3288 47.9793V47.9883ZM101.967 66.6739L87.9923 79.2811L68.9568 58.1821L82.9318 45.5749C85.7142 43.0625 89.4061 41.7657 93.179 41.9639C96.9879 42.162 100.473 43.8099 103.003 46.6105C108.253 52.4278 107.784 61.4329 101.967 66.6829V66.6739Z" fill="white"/>
<path d="M93.0169 43.6298C89.379 43.4407 85.8853 44.6744 83.2019 47.0968C82.3015 47.9073 82.2294 49.285 83.0399 50.1855C83.8503 51.0771 85.228 51.1581 86.1284 50.3476C87.9473 48.6997 90.3155 47.8622 92.7918 47.9973C95.268 48.1234 97.5372 49.195 99.176 51.023C99.6082 51.5003 100.203 51.7434 100.797 51.7434C101.319 51.7434 101.841 51.5543 102.256 51.1851C103.156 50.3747 103.228 48.9969 102.418 48.0964C99.9954 45.4038 96.6547 43.8189 93.0079 43.6388L93.0169 43.6298Z" fill="white"/>
<path d="M55.486 85.2965C55.486 83.7836 54.2614 82.5589 52.7486 82.5589C51.2358 82.5589 50.0112 83.7836 50.0112 85.2965C50.0112 86.8093 51.2358 88.034 52.7486 88.034C54.2614 88.034 55.486 86.8093 55.486 85.2965Z" fill="white"/>
<path d="M66.3953 76.8304C66.6392 74.6558 65.0742 72.6951 62.8997 72.4512C60.7251 72.2073 58.7646 73.7725 58.5207 75.9471C58.2768 78.1218 59.8419 80.0824 62.0164 80.3263C64.1909 80.5703 66.1514 79.0051 66.3953 76.8304Z" fill="white"/>
<path d="M64.5896 85.9359C62.3654 85.9359 60.5555 87.7459 60.5555 89.9701C60.5555 92.1944 62.3654 94.0044 64.5896 94.0044C66.8137 94.0044 68.6236 92.1944 68.6236 89.9701C68.6236 87.7459 66.8137 85.9359 64.5896 85.9359Z" fill="white"/>
<path d="M72.7927 94.7519C70.9287 94.7519 69.416 96.2647 69.416 98.1288C69.416 99.9928 70.9287 101.506 72.7927 101.506C74.6566 101.506 76.1694 99.9928 76.1694 98.1288C76.1694 96.2647 74.6566 94.7519 72.7927 94.7519Z" fill="white"/>
<path d="M56.3023 102.811C58.6019 102.17 59.947 99.787 59.3067 97.4873C58.6663 95.1876 56.2831 93.8424 53.9835 94.4827C51.6839 95.1231 50.3388 97.5065 50.9791 99.8063C51.6195 102.106 54.0027 103.451 56.3023 102.811Z" fill="white"/>
<path d="M74.1704 79.182C72.3064 79.182 70.7937 80.6949 70.7937 82.5589C70.7937 84.423 72.3064 85.9358 74.1704 85.9358C76.0343 85.9358 77.5471 84.423 77.5471 82.5589C77.5471 80.6949 76.0343 79.182 74.1704 79.182Z" fill="white"/>
</svg>
