<svg width="127" height="146" viewBox="0 0 127 146" fill="none" xmlns="http://www.w3.org/2000/svg">
<path d="M63.5045 6.79891C94.8245 6.79891 120.21 32.1845 120.21 63.5045C120.21 94.8245 94.8245 120.21 63.5045 120.21C32.1845 120.21 6.79891 94.8155 6.79891 63.5045C6.79891 32.1935 32.1845 6.79891 63.5045 6.79891ZM63.5045 0C28.4834 0 0 28.4834 0 63.5045C0 98.5256 28.4834 127.009 63.5045 127.009C98.5256 127.009 127.009 98.5256 127.009 63.5045C127.009 28.4834 98.5166 0 63.5045 0Z" fill="white"/>
<path d="M34.6699 27.5738C40.8385 21.1892 50.1588 18.8028 63.8467 18.8028C77.5346 18.8028 86.8549 21.1802 93.0145 27.5738C99.3271 34.3367 100.984 43.3599 100.984 64.0268C100.984 84.6937 99.3271 93.7169 93.0145 100.48C86.8459 106.864 77.5256 109.251 63.8467 109.251C50.1678 109.251 40.8385 106.873 34.6699 100.48C28.3573 93.7169 26.7003 84.6937 26.7003 64.0268C26.7003 43.3599 28.3573 34.3367 34.6699 27.5738ZM69.8532 38.8483C69.2498 36.3449 67.5929 34.5889 63.8377 34.5889C60.0825 34.5889 58.4256 36.3449 57.8222 38.8483C57.2189 41.4778 56.7686 52.5002 56.7686 64.0268C56.7686 75.5534 57.2189 86.5758 57.8222 89.2053C58.4256 91.7087 60.0825 93.4647 63.8377 93.4647C67.5929 93.4647 69.2498 91.7087 69.8532 89.2053C70.4565 86.5758 70.9068 75.5534 70.9068 64.0268C70.9068 52.5002 70.4565 41.4778 69.8532 38.8483Z" fill="white"/>
<path d="M40.5233 130.98C41.3698 128.684 41.4869 127.576 40.2531 127.117C38.7763 126.568 38.1189 127.928 36.588 132.052C34.85 136.726 34.5619 137.995 36.1018 138.572C37.4705 139.076 38.209 137.572 39.1365 135.132L42.7116 136.455L42.5044 137.005C41.2437 140.4 39.3526 142.579 34.769 140.886C30.0323 139.121 30.9688 135.438 32.7338 130.701C34.2287 126.667 35.9487 122.714 41.1987 124.659C44.4586 125.874 45.7193 127.946 44.3505 131.647L44.1074 132.304L40.5323 130.98H40.5233Z" fill="white"/>
<path d="M48.9522 127.369L53.7969 128.288L54.7875 145.533L50.7712 144.776V141.525L46.8179 140.778L45.6473 143.804L41.631 143.047L48.9432 127.378L48.9522 127.369ZM50.7352 130.809H50.6902L47.9436 137.878L50.7532 138.41L50.7352 130.809Z" fill="white"/>
<path d="M56.8317 128.828L63.4505 128.945C66.8094 129.008 67.9261 131.088 67.881 133.394C67.836 135.834 66.8274 137.014 64.9904 137.428V137.473C67.4938 137.869 67.6109 139.445 67.6109 141.696C67.6199 145.01 67.737 145.335 68.2953 145.587V145.803L64.0448 145.731C63.7477 145.163 63.6486 144.218 63.6846 142.318C63.7387 139.409 63.3514 138.788 62.0997 138.77L60.5959 138.743L60.4698 145.668L56.5255 145.596L56.8227 128.837L56.8317 128.828ZM60.6499 135.96L61.8746 135.978C63.4685 136.005 63.9188 134.816 63.9278 133.835C63.9548 132.565 63.4955 131.71 61.9286 131.683L60.7309 131.656L60.6589 135.951L60.6499 135.96Z" fill="white"/>
<path d="M69.1328 128.9L75.1842 127.873C78.0119 127.396 80.1101 128.396 80.5873 131.151C80.9115 133.078 80.1551 134.753 78.6242 135.321V135.366C79.8939 135.339 81.812 135.564 82.3884 138.95C82.7216 140.895 82.3073 143.687 77.6967 144.47L71.9514 145.452L69.1328 128.9ZM74.1486 134.844L75.2112 134.663C76.553 134.438 76.9853 133.574 76.7782 132.394C76.6341 131.539 76.0127 130.692 74.5989 130.926L73.5093 131.115L74.1396 134.844H74.1486ZM75.3553 141.913L76.535 141.714C78.1109 141.444 78.4711 140.355 78.282 139.202C78.0029 137.581 77.0483 137.023 75.8506 137.23L74.5989 137.446L75.3553 141.922V141.913Z" fill="white"/>
<path d="M88.1697 136.554L88.3678 137.104C88.8001 138.292 89.4664 139.076 90.7452 138.608C92.0419 138.13 92.0689 137.023 91.7357 136.122C90.493 132.727 84.4235 137.095 82.2623 131.214C81.3438 128.702 81.9111 126.09 85.7293 124.695C89.4304 123.335 91.4386 124.731 92.3301 127.153L92.4652 127.531L88.8901 128.837C88.62 128.09 88.3228 127.567 87.9806 127.297C87.6204 127 87.2061 126.955 86.6568 127.162C85.7293 127.504 85.3781 128.252 85.8013 129.404C86.999 132.691 93.1676 128.558 95.1937 134.114C96.4995 137.689 95.0406 139.841 91.6457 141.084C88.9622 142.066 86.1705 142.165 84.9639 138.878L84.5946 137.86L88.1697 136.554Z" fill="white"/>
</svg>
